<?xml version="1.0" encoding="UTF-8" standalone="no"?>
<svg id="Calque_1" xmlns:rdf="http://www.w3.org/1999/02/22-rdf-syntax-ns#" xmlns="http://www.w3.org/2000/svg" version="1.1" xml:space="preserve" height="168" width="670" enable-background="new 0 0 530.973 530.973" y="0px" x="0px" xmlns:cc="http://creativecommons.org/ns#" xmlns:dc="http://purl.org/dc/elements/1.1/" viewBox="0 0 669.99995 167.99999"><metadata id="metadata9"><rdf:RDF><cc:Work rdf:about=""><dc:format>image/svg+xml</dc:format><dc:type rdf:resource="http://purl.org/dc/dcmitype/StillImage"/><dc:title/></cc:Work></rdf:RDF></metadata>
<g id="layer1" transform="translate(-311 -77.973)"><g id="g4153" fill="#000000" transform="matrix(.32580 0 0 .32580 307.33 75.038)"><g id="text4163"><path id="path4167" d="m396.46 348.5h50.644l20.258-36.717h73.181l4.8112 36.717h57.228l-33.425-182.83h-61.786l-110.91 182.83zm89.894-70.396 41.528-76.726h0.75966l7.3434 76.726h-49.631z"/><path id="path4169" d="m648.2 348.5h50.898l13.927-65.838 32.919-0.25322c9.8756 0 31.906 0 47.859-7.8499 7.8499-3.7983 31.399-17.726 38.236-49.885 5.0644-23.803-1.7726-40.262-15.193-49.631-13.168-9.3692-31.653-9.3692-45.833-9.3692h-84.069l-38.743 182.83zm82.55-148.89h22.283c14.687 0 32.412 1.2661 27.601 23.55-5.0644 24.562-25.069 24.562-37.477 24.562h-22.537l10.129-48.112z"/><path id="path4171" d="m854.27 348.5h139.27l7.5967-35.451h-89.134l8.1031-38.996h82.044l7.5966-34.945h-82.044l8.1031-37.983h87.108l7.3434-34.945h-137.25l-38.743 182.32z"/><path id="path4173" d="m1046.5 348.5h50.898l15.193-71.408h21.271c22.79 0 21.777 8.1031 19.498 30.133-1.7726 16.206-3.5451 30.133-2.7855 41.275h54.949c-1.5194-12.914 0-32.666 1.0128-45.073 1.7726-28.108 3.2919-43.807-32.159-44.82l0.2533-1.0129c5.3176-0.75966 16.713-2.0258 29.88-9.3692 9.8756-5.3176 19.751-13.927 24.056-33.932 4.0515-19.751-0.7597-29.88-5.3176-35.451-8.3564-11.142-20.511-13.168-53.43-13.168h-84.576l-38.743 182.83zm82.55-149.15h18.992c14.687 0 34.438 0 29.627 22.537-1.2661 5.8241-5.8241 17.219-17.726 20.764-4.558 1.5193-10.129 1.5193-21.271 1.5193h-18.992l9.3692-44.82z"/><path id="path4175" d="m1295.4 348.5h51.151l31.146-146.62h56.975l7.5967-36.211h-163.83l-7.5967 36.211h55.709l-31.146 146.62z"/><path id="path4177" d="m1487.3 165.68-22.284 104.07c-6.3305 29.88-17.472 83.563 68.876 83.563 23.043 0 56.722-4.3048 79.005-26.082 14.18-13.421 21.777-35.451 26.082-55.709l22.283-105.85h-49.378l-22.537 106.86c-4.0516 18.232-13.674 44.314-45.833 44.314-12.408 0-23.296-4.8112-28.108-14.94-3.5451-7.5966-2.0257-17.725 0-27.601l23.043-108.63h-51.151z"/><path id="path4179" d="m1682.1 348.5h50.897l15.193-71.408h21.271c22.79 0 21.777 8.1031 19.498 30.133-1.7726 16.206-3.5451 30.133-2.7855 41.275h54.949c-1.5194-12.914 0-32.666 1.0129-45.073 1.7725-28.108 3.2918-43.807-32.159-44.82l0.2533-1.0129c5.3176-0.75966 16.713-2.0258 29.88-9.3692 9.8756-5.3176 19.751-13.927 24.056-33.932 4.0516-19.751-0.7597-29.88-5.3176-35.451-8.3563-11.142-20.511-13.168-53.43-13.168h-84.576l-38.743 182.83zm82.55-149.15h18.992c14.687 0 34.438 0 29.627 22.537-1.2661 5.8241-5.8241 17.219-17.726 20.764-4.558 1.5193-10.129 1.5193-21.271 1.5193h-18.992l9.3692-44.82z"/><path id="path4181" d="m1890.2 348.5h139.27l7.5967-35.451h-89.134l8.1031-38.996h82.044l7.5967-34.945h-82.044l8.103-37.983h87.108l7.3434-34.945h-137.25l-38.743 182.32z"/></g>
<path id="path4145" d="m207.75 516.52-19.756-5.162-11.712-64.456c-6.4414-35.451-11.363-66.896-10.937-69.877 0.60945-4.2664 12.213 2.2758 54.488 30.72 29.542 19.878 69.598 46.399 89.011 58.936 49.166 31.752 56.578 37.55 51.573 40.351-2.2553 1.2622-15.357 5.1689-29.115 8.6817-32.129 8.2034-93.702 8.6051-123.55 0.8061zm-60.514-23.243c-39.638-21.178-75.768-54.691-97.462-90.403l-11.331-18.653 40.616-58.581c25.852-37.287 41.386-57.134 42.736-54.601 1.1658 2.189 4.5861 17.792 7.6007 34.674 3.0146 16.881 12.849 67.878 21.854 113.33 9.005 45.448 16.006 82.999 15.559 83.447-0.4476 0.44763-9.255-3.6961-19.572-9.2084zm177.13-36.909c-29.446-20.666-54.007-38.979-54.579-40.697-0.6093-1.8279 45.146-12.303 110.32-25.257 61.249-12.174 113.78-22.838 116.73-23.699 8.5524-2.4913 6.4889 4.7325-8.896 31.141-23.312 40.016-86.048 97.329-105.44 96.324-2.5322-0.13137-28.696-17.147-58.142-37.812zm-297.68-100.94c-11.556-30.395-13.82-44.74-13.9-88.085-0.0626-34.038 1.1942-48.657 5.3441-62.154 2.9844-9.7068 6.2853-17.649 7.3354-17.649 2.3046 0 119.34-20.974 129.13-23.143 3.7983-0.84082 6.906-0.1857 6.906 1.4562 0 2.5786-122.5 187.22-129.27 194.84-1.396 1.5718-3.8344-0.73837-5.5544-5.2622zm385.55-92.85c-4.8997-16.658-45.365-223.18-44.524-227.24 0.7964-3.8472 4.3645-2.9122 19.249 5.044 25.259 13.501 46.174 29.542 66.654 51.118 19.882 20.946 43.312 55.614 41.238 61.018-1.6561 4.3157-65.965 97.661-74.771 108.53-5.7616 7.1121-6.1817 7.1943-7.8464 1.5347zm-379.64-97.94c0-8.1763 29.708-52.859 48.124-72.38 18.262-19.359 61.51-52.049 68.859-52.049 3.5866 0 116.15 77.565 116.23 80.091 0.031 1.0023-11.338 4.0624-25.265 6.8002-13.927 2.7379-66.413 13.051-116.64 22.917-56.423 11.085-91.313 16.671-91.313 14.621zm237.88-66.369c-52.332-35.431-95.547-65.562-96.033-66.957-1.1532-3.3123 10.864-7.7486 39.25-14.489 30.94-7.3474 82.933-6.9872 112.03 0.77624l21.485 5.7323 11.211 59.852c15.37 82.054 15.066 79.827 10.849 79.654-2.004-0.082-46.461-29.138-98.794-64.569z"/><g id="text4162"><path id="path4184" d="m568.34 455.63h55.862v-8.809h-44.69v-68.753h-11.172v77.562z"/><path id="path4186" d="m753.24 455.63h12.784l-39.856-77.562h-13.106l-39.856 77.562h12.462l9.9907-20.196h47.59l9.9907 20.196zm-53.069-29.005 19.444-39.104 19.337 39.104h-38.781z"/><path id="path4188" d="m822.51 455.63h39.318c21.056 0 29.542-9.9907 29.542-21.593 0-9.2388-5.9085-17.403-18.37-18.907v-0.32228c9.9907-1.9337 15.47-7.305 15.47-17.188 0-13.214-8.1645-19.552-29.328-19.552h-36.633v77.562zm11.172-36.096h26.105c13.643 0 19.767 4.9416 19.767 13.858 0 7.5199-3.9748 13.428-19.122 13.428h-26.749v-27.287zm0-32.658h24.816c15.255 0 18.8 4.8342 18.8 12.032 0 8.2719-5.6936 11.817-15.04 11.817h-28.576v-23.849z"/><path id="path4190" d="m952.56 416.85c0 18.477 11.065 40.822 43.615 40.822s43.615-22.345 43.615-40.822-11.065-40.822-43.615-40.822-43.615 22.345-43.615 40.822zm11.817 0c0-19.122 12.999-32.013 31.798-32.013 18.8 0 31.798 12.891 31.798 32.013s-12.999 32.013-31.798 32.013c-18.8 0-31.798-12.891-31.798-32.013z"/><path id="path4192" d="m1114.2 421.04h21.593c14.61 0 18.263 3.9748 19.552 9.561 2.0411 8.7016 3.2228 19.552 5.2639 25.031h11.817c-2.1485-5.0491-3.1154-11.924-4.4045-20.196-2.0411-13.106-4.8342-17.296-15.255-18.585v-0.21486c10.85-1.504 17.726-8.5942 17.726-18.048 0-12.462-5.3713-20.519-29.328-20.519h-38.137v77.562h11.172v-34.592zm0-34.162h25.675c13.643 0 18.8 3.2228 18.8 12.676 0 9.8833-7.1976 12.676-19.015 12.676h-25.46v-25.353z"/><path id="path4194" d="m1306.4 455.63h12.784l-39.856-77.562h-13.106l-39.856 77.562h12.462l9.9907-20.196h47.59l9.9907 20.196zm-53.069-29.005 19.444-39.104 19.337 39.104h-38.781z"/><path id="path4196" d="m1391.5 455.63h11.172v-68.109h32.873v-9.4536h-76.918v9.4536h32.873v68.109z"/><path id="path4198" d="m1487.9 416.85c0 18.477 11.065 40.822 43.615 40.822s43.616-22.345 43.616-40.822-11.065-40.822-43.616-40.822c-32.55 0-43.615 22.345-43.615 40.822zm11.817 0c0-19.122 12.999-32.013 31.798-32.013 18.8 0 31.798 12.891 31.798 32.013s-12.999 32.013-31.798 32.013c-18.8 0-31.798-12.891-31.798-32.013z"/><path id="path4200" d="m1649.6 421.04h21.593c14.61 0 18.263 3.9748 19.552 9.561 2.0411 8.7016 3.2228 19.552 5.2639 25.031h11.817c-2.1485-5.0491-3.1154-11.924-4.4045-20.196-2.0411-13.106-4.8342-17.296-15.255-18.585v-0.21486c10.85-1.504 17.726-8.5942 17.726-18.048 0-12.462-5.3713-20.519-29.328-20.519h-38.137v77.562h11.172v-34.592zm0-34.162h25.675c13.643 0 18.8 3.2228 18.8 12.676 0 9.8833-7.1976 12.676-19.015 12.676h-25.46v-25.353z"/><path id="path4202" d="m1770.7 455.63h11.172v-77.562h-11.172v77.562z"/><path id="path4204" d="m1848.7 455.63h59.3v-8.809h-48.127v-26.642h43.83v-8.809h-43.83v-24.493h46.838v-8.809h-58.011v77.562z"/><path id="path4206" d="m2039.2 398.69c-1.0743-17.833-18.155-22.667-34.269-22.667-21.163 0-33.84 8.5942-33.84 23.527 0 32.443 59.407 12.999 59.407 34.484 0 8.4868-8.9165 14.825-25.031 14.825-14.718 0-24.708-6.0159-25.03-16.436h-11.817c1.3965 17.081 14.18 25.245 36.203 25.245 22.99 0 36.848-9.3462 36.848-24.816 0-9.561-5.8011-16.759-18.37-18.907l-28.898-4.9416c-9.561-1.6114-12.139-5.9085-12.139-10.098 0-8.5942 9.3462-14.073 20.411-14.073 12.569 0 23.634 3.008 24.708 13.858h11.817z"/></g></g></g>
</svg>
