<?xml version="1.0" encoding="UTF-8" standalone="no"?>
<!-- Created with Inkscape (http://www.inkscape.org/) -->
<svg id="svg2" xmlns:rdf="http://www.w3.org/1999/02/22-rdf-syntax-ns#" xmlns="http://www.w3.org/2000/svg" height="296" width="225" version="1.1" xmlns:cc="http://creativecommons.org/ns#" xmlns:dc="http://purl.org/dc/elements/1.1/" viewBox="0 0 225 296.00001">
<metadata id="metadata7">
<rdf:RDF>
<cc:Work rdf:about="">
<dc:format>image/svg+xml</dc:format>
<dc:type rdf:resource="http://purl.org/dc/dcmitype/StillImage"/>
<dc:title/>
</cc:Work>
</rdf:RDF>
</metadata>
<g id="layer2" transform="translate(0,16)">
<g id="g4184" transform="translate(-235.87 -16.464)">
<path id="path4174" stroke-linejoin="round" d="m255.87 68.305 92.143-52.745 92.857 52.745v106.87l-92.5 53.435-92.5-53.435z" stroke="#b8c833" stroke-width="15" fill="none"/>
<g id="g4190" fill-rule="evenodd">
<path id="path4178" d="m348.37 29.71-80 46.188 80 46.188 80-46.188z" fill="#e14c2d"/>
<path id="path4180" d="m348.37 122.09 0.00001 92.376 80-46.188-0.00002-92.376z" fill="#ee9221"/>
<path id="path4182" d="m348.37 122.09-0.00001 92.376-80-46.188 0.00002-92.376z" fill="#6bc9cf"/>
</g>
</g>
<g id="text4195" fill="#000000">
<path id="path4223" d="m10.947 259.61v-28.555h7.7539v28.555h-7.7539z"/>
<path id="path4225" d="m51.572 259.61v-12.031q0-2.2461-0.625-3.3594-0.60547-1.1328-1.9336-1.1328-1.7578 0-2.5781 1.5039-0.82031 1.5039-0.82031 4.707v10.312h-7.6562v-12.031q0-2.2461-0.58594-3.3594-0.58594-1.1328-1.8945-1.1328-1.7969 0-2.6172 1.6016-0.82031 1.6016-0.82031 5.2344v9.6875h-7.6367v-22.129h5.7617l0.95703 2.7344h0.44922q0.87891-1.5234 2.5391-2.3242 1.6797-0.80078 3.8086-0.80078 4.7852 0 6.7188 2.9102h0.60547q0.9375-1.3672 2.5977-2.1289 1.6797-0.78125 3.6914-0.78125 3.9258 0 5.8008 2.0117t1.875 6.1133v14.395h-7.6367z"/>
<path id="path4227" d="m91.572 259.61v-12.031q0-2.2461-0.625-3.3594-0.60547-1.1328-1.9336-1.1328-1.7578 0-2.5781 1.5039-0.82031 1.5039-0.82031 4.707v10.312h-7.6562v-12.031q0-2.2461-0.58594-3.3594-0.58594-1.1328-1.8945-1.1328-1.7969 0-2.6172 1.6016-0.82031 1.6016-0.82031 5.2344v9.6875h-7.6367v-22.129h5.7617l0.95703 2.7344h0.44922q0.87891-1.5234 2.5391-2.3242 1.6797-0.80078 3.8086-0.80078 4.7852 0 6.7188 2.9102h0.60547q0.9375-1.3672 2.5977-2.1289 1.6797-0.78125 3.6914-0.78125 3.9258 0 5.8008 2.0117t1.875 6.1133v14.395h-7.6367z"/>
<path id="path4229" d="m120.17 259.61-0.95703-2.7539h-0.44922q-0.95703 1.5234-2.6758 2.3438-1.7 0.8-4 0.8-3.6523 0-5.6836-2.1094-2.0312-2.1289-2.0312-5.9961v-14.414h7.6367v12.09q0 2.168 0.60546 3.2812 0.625 1.1133 2.0312 1.1133 1.9727 0 2.8125-1.543 0.83985-1.5625 0.83985-5.2539v-9.6875h7.6367v22.129h-5.7617z"/>
<path id="path4231" d="m141.28 260q-5.4297 0-8.2422-2.9297-2.793-2.9297-2.793-8.418 0-5.5078 3.0274-8.5352 3.0273-3.0274 8.6133-3.0274 3.8476 0 7.2461 1.6797l-2.2461 5.6445q-1.3867-0.60547-2.5586-0.95703-1.1719-0.37109-2.4414-0.37109-1.8555 0-2.8711 1.4453t-1.0156 4.082q0 5.3125 3.9258 5.3125 3.3594 0 6.4453-1.9531v6.0742q-2.94 1.96-7.08 1.96z"/>
<path id="path4233" d="m167.2 259.61-1.4648-2.9297h-0.15625q-1.543 1.9141-3.1445 2.6172-1.61 0.7-4.15 0.7-3.125 0-4.9219-1.875t-1.7969-5.2734q0-3.5352 2.4609-5.2539 2.4609-1.7383 7.1289-1.9531l3.6914-0.11719v-0.3125q0-2.7344-2.6953-2.7344-2.4219 0-6.1524 1.6406l-2.207-5.0391q3.8672-1.9922 9.7656-1.9922 4.2578 0 6.582 2.1094 2.3438 2.1094 2.3438 5.8984v14.512h-5.293zm-5.6641-5q1.3867 0 2.3633-0.8789 0.99609-0.87891 0.99609-2.2852v-1.7188l-1.7578 0.0781q-3.7695 0.13672-3.7695 2.7734 0 2.0312 2.168 2.0312z"/>
<path id="path4235" d="m194.78 252.81q0 3.5547-2.4219 5.3711-2.43 1.82-6.96 1.82-2.4609 0-4.2773-0.27344-1.8164-0.2539-3.7109-0.95703v-6.1133q1.7774 0.78125 3.8867 1.2891 2.1289 0.50781 3.7891 0.50781 2.4805 0 2.4805-1.1328 0-0.58594-0.70312-1.0352-0.6836-0.46875-4.0234-1.7969-3.0469-1.25-4.2578-2.832-1.2109-1.6016-1.2109-4.043 0-3.0859 2.3828-4.8047t6.7383-1.7188q2.1875 0 4.1016 0.48828 1.9336 0.46875 4.0039 1.3867l-2.0703 4.9219q-1.5234-0.6836-3.2227-1.1524-1.6992-0.48828-2.7734-0.48828-1.875 0-1.875 0.91797 0 0.56641 0.64453 0.97656 0.66406 0.39063 3.7891 1.6211 2.3242 0.95703 3.457 1.875 1.1523 0.91797 1.6797 2.168 0.54687 1.2305 0.54687 3.0078z"/>
<path id="path4237" d="m209.85 253.96q1.543 0 3.6914-0.76172v5.5664q-1.543 0.66406-2.9492 0.9375-1.38 0.29-3.26 0.29-3.8477 0-5.5469-1.875-1.6992-1.8945-1.6992-5.8008v-9.1211h-2.6758v-3.1055l3.3984-2.4024 1.9727-4.6484h5v4.4336h5.4297v5.7226h-5.4297v8.6133q0 2.1484 2.0703 2.1484z"/>
</g>
</g>
</svg>
