<?xml version="1.0" encoding="UTF-8" standalone="no"?>
<svg id="svg2" xmlns:rdf="http://www.w3.org/1999/02/22-rdf-syntax-ns#" xmlns="http://www.w3.org/2000/svg" viewBox="0 0 225 295.99999" height="296" width="225" version="1.1" xmlns:cc="http://creativecommons.org/ns#" xmlns:dc="http://purl.org/dc/elements/1.1/">
<defs id="defs4">
<clipPath id="clipPath4211" clipPathUnits="userSpaceOnUse">
<circle id="circle4213" fill-opacity=".37647" cy="538.27" cx="334.29" r="110.5" fill="#000000"/>
</clipPath>
</defs>
<metadata id="metadata7">
<rdf:RDF>
<cc:Work rdf:about="">
<dc:format>image/svg+xml</dc:format>
<dc:type rdf:resource="http://purl.org/dc/dcmitype/StillImage"/>
<dc:title/>
</cc:Work>
</rdf:RDF>
</metadata>
<g id="layer2">
<g id="text4136" fill="#000000" transform="translate(-422.32 -504.72)">
<path id="path4164" d="m599.25 784.39c1.035 0 1.89-0.18 2.61-0.63 0.72-0.405 1.26-0.945 1.71-1.62s0.72-1.485 0.945-2.385c0.18-0.9 0.27-1.8 0.27-2.745 0-0.9-0.135-1.8-0.315-2.745-0.18-0.855-0.495-1.665-0.945-2.385s-1.035-1.26-1.755-1.71-1.575-0.63-2.565-0.675c-1.08 0-1.935 0.225-2.655 0.675s-1.26 0.99-1.71 1.665c-0.45 0.72-0.72 1.485-0.9 2.385s-0.27 1.845-0.27 2.79c-0.045 0.945 0.09 1.845 0.27 2.745s0.495 1.71 0.945 2.385 1.035 1.215 1.755 1.62c0.675 0.45 1.575 0.63 2.61 0.63zm-11.745-19.08h6.075v2.97h0.09c0.765-1.215 1.755-2.16 2.97-2.745 1.17-0.54 2.475-0.855 3.96-0.855 1.8 0 3.375 0.36 4.725 1.035 1.305 0.72 2.385 1.62 3.285 2.745 0.855 1.17 1.485 2.475 1.935 4.005 0.405 1.53 0.585 3.105 0.63 4.725 0 1.575-0.225 3.06-0.63 4.5-0.45 1.44-1.08 2.745-1.935 3.825-0.855 1.125-1.935 2.025-3.195 2.655-1.26 0.675-2.745 0.99-4.455 0.99-1.44 0-2.79-0.27-4.005-0.855s-2.205-1.44-2.97-2.61h-0.09v11.025h-6.39v-31.41zm-21.84 11.655c0 0.945 0.09 1.845 0.27 2.745s0.45 1.665 0.9 2.385 1.035 1.26 1.755 1.665c0.72 0.45 1.62 0.63 2.7 0.63s1.98-0.18 2.7-0.63c0.72-0.405 1.305-0.945 1.755-1.665s0.72-1.485 0.945-2.385c0.18-0.9 0.27-1.8 0.27-2.745 0-0.9-0.09-1.8-0.27-2.745-0.18-0.9-0.495-1.665-0.945-2.385-0.45-0.675-1.035-1.215-1.755-1.665s-1.62-0.63-2.7-0.675c-1.08 0-1.98 0.225-2.7 0.675s-1.305 0.99-1.755 1.665c-0.45 0.72-0.72 1.485-0.9 2.385s-0.27 1.845-0.27 2.745zm-6.39 0c0-1.845 0.27-3.51 0.855-5.04 0.54-1.53 1.35-2.79 2.43-3.87 1.035-1.08 2.295-1.89 3.78-2.475 1.44-0.585 3.105-0.9 4.95-0.9 1.8 0 3.465 0.315 4.95 0.9s2.745 1.395 3.825 2.475c1.035 1.08 1.845 2.34 2.43 3.87 0.54 1.53 0.855 3.195 0.855 5.04 0 1.89-0.315 3.555-0.855 5.04-0.585 1.53-1.395 2.79-2.43 3.87-1.08 1.08-2.34 1.89-3.825 2.43-1.485 0.585-3.15 0.855-4.95 0.855-1.845 0-3.51-0.27-4.95-0.855-1.485-0.54-2.745-1.35-3.78-2.43-1.08-1.08-1.89-2.34-2.43-3.87-0.585-1.485-0.855-3.15-0.855-5.04zm-15.979-11.655h6.075v4.32h0.09c0.27-0.675 0.675-1.35 1.215-1.98 0.495-0.63 1.08-1.125 1.755-1.575 0.63-0.45 1.35-0.765 2.115-1.035 0.72-0.225 1.485-0.315 2.34-0.36 0.405 0 0.855 0.09 1.395 0.225v5.94c-0.315-0.045-0.675-0.09-1.08-0.135-0.45-0.045-0.855-0.09-1.215-0.09-1.17 0-2.16 0.225-2.97 0.585-0.81 0.405-1.485 0.945-1.98 1.62s-0.855 1.44-1.035 2.34c-0.225 0.9-0.315 1.89-0.315 2.925v10.485h-6.39v-23.265zm-10.18 9.135c-0.315-1.575-0.855-2.835-1.62-3.69-0.765-0.81-1.935-1.215-3.465-1.26-1.035 0-1.89 0.18-2.565 0.54s-1.215 0.765-1.62 1.26c-0.405 0.54-0.675 1.08-0.855 1.62-0.18 0.585-0.27 1.08-0.27 1.53h10.395zm-10.395 4.05c0.045 2.07 0.585 3.6 1.575 4.5 0.945 0.945 2.295 1.395 4.14 1.395 1.26 0 2.385-0.315 3.33-0.945 0.9-0.63 1.485-1.305 1.71-2.07h5.625c-0.9 2.79-2.295 4.815-4.14 5.985-1.89 1.215-4.14 1.8-6.75 1.8-1.845 0-3.51-0.27-4.95-0.855-1.485-0.585-2.745-1.44-3.735-2.52-1.035-1.08-1.845-2.34-2.385-3.87-0.54-1.485-0.81-3.105-0.81-4.95 0-1.71 0.27-3.33 0.855-4.86 0.54-1.485 1.35-2.79 2.43-3.87 1.035-1.08 2.295-1.98 3.735-2.61s3.06-0.945 4.86-0.945c1.935 0 3.69 0.405 5.175 1.17 1.44 0.765 2.655 1.8 3.6 3.06 0.945 1.305 1.62 2.79 2.07 4.41 0.405 1.665 0.54 3.375 0.45 5.175h-16.785zm-12.985-13.185h4.68v4.275h-4.68v11.52c0 1.08 0.18 1.8 0.54 2.16s1.08 0.54 2.16 0.54c0.36 0.045 0.675 0 1.035-0.045 0.315 0 0.63-0.045 0.945-0.135v4.95c-0.54 0.09-1.17 0.18-1.8 0.18-0.675 0.045-1.305 0.045-1.935 0.045-0.99 0-1.935-0.045-2.835-0.18s-1.665-0.405-2.34-0.81c-0.675-0.36-1.215-0.945-1.575-1.665-0.405-0.72-0.585-1.665-0.585-2.835v-13.725h-3.87v-4.275h3.87v-6.975h6.39v6.975zm-34.819 0h6.075v3.24h0.135c0.81-1.305 1.845-2.295 3.15-2.925 1.26-0.63 2.565-0.945 3.96-0.945 1.71 0 3.105 0.27 4.185 0.72s1.98 1.125 2.61 1.935 1.035 1.845 1.305 3.015 0.405 2.475 0.405 3.915v14.31h-6.39v-13.14c0-1.89-0.315-3.33-0.9-4.275-0.63-0.945-1.665-1.44-3.195-1.44-1.755 0-3.015 0.54-3.78 1.575-0.81 1.035-1.17 2.745-1.17 5.085v12.195h-6.39v-23.265zm-12.596-8.865h7.065v32.13h-7.065v-32.13z"/>
</g>
<g id="g4208" transform="translate(-221.79 -426.77)" clip-path="url(#clipPath4211)">
<rect id="rect4196" height="50" width="25" y="484.77" x="321.79" fill="#147abc"/>
<rect id="rect4200" height="50" width="25" y="484.77" x="346.79" fill="#80a23e"/>
<rect id="rect4202" height="50" width="25" y="484.77" x="296.79" fill="#6dcbd4"/>
<rect id="rect4206" height="50" width="25" y="534.77" x="321.79" fill="#6dcbd4"/>
<rect id="rect4214" height="50" width="25" y="534.77" x="296.79" fill="#147abc"/>
<rect id="rect4216" height="50" width="25" y="534.77" x="271.79" fill="#6dcbd4"/>
<rect id="rect4218" height="50" width="25" y="584.77" x="271.79" fill="#147abc"/>
<rect id="rect4220" height="50" width="25" y="584.77" x="296.79" fill="#1783bf"/>
<rect id="rect4222" height="50" width="25" y="584.77" x="321.79" fill="#0aa9c5"/>
<rect id="rect4224" height="75" width="25" y="409.77" x="321.79" fill="#6dcbd4"/>
<rect id="rect4226" height="50" width="25" y="634.77" x="296.79" fill="#6dcbd4"/>
<rect id="rect4228" height="50" width="25" y="634.77" x="271.79" fill="#0aa9c5"/>
<rect id="rect4230" height="50" width="25" y="634.77" x="321.79" fill="#147abc"/>
<rect id="rect4232" height="50" width="25" y="534.77" x="346.79" fill="#8ec641"/>
<rect id="rect4234" height="50" width="25" y="584.77" x="246.79" fill="#80a23e"/>
<g fill="#8ec641">
<rect id="rect4236" height="50" width="25" y="484.77" x="371.79"/>
<rect id="rect4238" height="75" width="25" y="409.77" x="346.79"/>
<rect id="rect4240" height="50" width="25" y="584.77" x="221.79"/>
</g>
<rect id="rect4242" height="75" width="25" y="409.77" x="371.79" fill="#649640"/>
<rect id="rect4244" height="50" width="25" y="534.77" x="246.79" fill="#649640"/>
<rect id="rect4246" height="75" width="25" y="409.77" x="396.79" fill="#5b863a"/>
<rect id="rect4169" height="75" width="25" y="409.77" x="296.79" fill="#f26225"/>
<rect id="rect4171" height="75" width="25" y="409.77" x="421.79" fill="#506d33"/>
<rect id="rect4173" height="50" width="25" y="534.77" x="221.79" fill="#506d33"/>
<g fill="#f26225">
<rect id="rect4175" height="50" width="25" y="584.77" x="371.79"/>
<rect id="rect4177" height="50" width="25" y="534.77" x="396.79"/>
<rect id="rect4181" height="50" width="25" y="484.77" x="246.79"/>
</g>
<rect id="rect4183" height="75" width="25" y="409.77" x="221.79" fill="#e14c2d"/>
<rect id="rect4185" height="50" width="25" y="484.77" x="271.79" fill="#e14c2d"/>
<rect id="rect4187" height="50" width="25" y="484.77" x="221.79" fill="#f98b38"/>
<rect id="rect4189" height="75" width="25" y="409.77" x="271.79" fill="#f98b38"/>
<g fill="#f78520">
<rect id="rect4191" height="75" width="25" y="409.77" x="246.79"/>
<rect id="rect4193" height="50" width="25" y="534.77" x="371.79"/>
<rect id="rect4195" height="50" width="25" y="584.77" x="396.79"/>
</g>
<rect id="rect4197" height="50" width="25" y="634.77" x="346.79" fill="#f98b38"/>
<rect id="rect4199" height="50" width="25" y="584.77" x="421.79" fill="#f98b38"/>
<rect id="rect4201" height="50" width="25" y="634.77" x="371.79" fill="#f78520"/>
<rect id="rect4203" height="50" width="25" y="584.77" x="346.79" fill="#c3bd45"/>
<rect id="rect4205" height="50" width="25" y="534.77" x="421.79" fill="#c3bd45"/>
<rect id="rect4207" height="50" width="25" y="484.77" x="421.79" fill="#80a23e"/>
<rect id="rect4209" height="50" width="25" y="484.77" x="396.79" fill="#7eae41"/>
</g>
</g>
</svg>
