<?xml version="1.0" encoding="UTF-8" standalone="no"?>
<!-- Created with Inkscape (http://www.inkscape.org/) -->

<svg
   xmlns:dc="http://purl.org/dc/elements/1.1/"
   xmlns:cc="http://creativecommons.org/ns#"
   xmlns:rdf="http://www.w3.org/1999/02/22-rdf-syntax-ns#"
   xmlns:svg="http://www.w3.org/2000/svg"
   xmlns="http://www.w3.org/2000/svg"
   xmlns:xlink="http://www.w3.org/1999/xlink"
   xmlns:sodipodi="http://sodipodi.sourceforge.net/DTD/sodipodi-0.dtd"
   xmlns:inkscape="http://www.inkscape.org/namespaces/inkscape"
   width="225"
   height="296"
   viewBox="0 0 225 295.99999"
   id="svg2"
   version="1.1"
   inkscape:version="0.91 r13725"
   sodipodi:docname="Interop-working.svg">
  <defs
     id="defs4">
    <inkscape:path-effect
       effect="construct_grid"
       id="path-effect4190"
       is_visible="true"
       nr_x="5"
       nr_y="9" />
    <clipPath
       clipPathUnits="userSpaceOnUse"
       id="clipPath4211">
      <circle
         style="opacity:1;fill:#000000;fill-opacity:0.37647059;fill-rule:nonzero;stroke:none;stroke-width:4;stroke-linecap:butt;stroke-linejoin:round;stroke-miterlimit:4;stroke-dasharray:none;stroke-opacity:0"
         id="circle4213"
         r="110.5"
         cy="538.27295"
         cx="334.28571" />
    </clipPath>
  </defs>
  <sodipodi:namedview
     id="base"
     pagecolor="#ffffff"
     bordercolor="#666666"
     borderopacity="1.0"
     inkscape:pageopacity="0.0"
     inkscape:pageshadow="2"
     inkscape:zoom="2.2331081"
     inkscape:cx="112.5"
     inkscape:cy="148"
     inkscape:document-units="px"
     inkscape:current-layer="svg2"
     showgrid="false"
     fit-margin-top="0"
     fit-margin-left="0"
     fit-margin-right="0"
     fit-margin-bottom="0"
     inkscape:window-width="1600"
     inkscape:window-height="836"
     inkscape:window-x="-8"
     inkscape:window-y="-8"
     inkscape:window-maximized="1"
     units="px"
     showguides="true"
     inkscape:snap-grids="true"
     inkscape:snap-to-guides="true"
     inkscape:snap-text-baseline="true"
     inkscape:snap-object-midpoints="false"
     inkscape:snap-center="false">
    <inkscape:grid
       type="xygrid"
       id="grid4204"
       empspacing="1"
       spacingx="25"
       spacingy="49.999998"
       dotted="false" />
  </sodipodi:namedview>
  <metadata
     id="metadata7">
    <rdf:RDF>
      <cc:Work
         rdf:about="">
        <dc:format>image/svg+xml</dc:format>
        <dc:type
           rdf:resource="http://purl.org/dc/dcmitype/StillImage" />
        <dc:title></dc:title>
      </cc:Work>
    </rdf:RDF>
  </metadata>
  <g
     inkscape:label="Bitmap"
     inkscape:groupmode="layer"
     id="layer1"
     transform="translate(-421.78568,-438.77292)"
     style="display:none"
     sodipodi:insensitive="true">
    <image
       sodipodi:absref="G:\Dropbox\Work\Focus21\0 - Init\img\group-2@3x.png"
       xlink:href="group-2@3x.png"
       y="438.52292"
       x="421.78568"
       id="image4148"
       preserveAspectRatio="none"
       height="296.25"
       width="225" />
  </g>
  <g
     inkscape:groupmode="layer"
     id="layer2"
     inkscape:label="Vector"
     style="display:inline">
    <g
       style="font-style:normal;font-variant:normal;font-weight:normal;font-stretch:normal;font-size:40px;line-height:125%;font-family:'MV Boli';-inkscape-font-specification:'MV Boli';letter-spacing:0px;word-spacing:0px;fill:#000000;fill-opacity:1;stroke:none;stroke-width:1px;stroke-linecap:butt;stroke-linejoin:miter;stroke-opacity:1"
       id="text4136"
       transform="translate(-422.32235,-504.71763)">
      <path
         id="path4164"
         style="font-style:normal;font-variant:normal;font-weight:bold;font-stretch:normal;font-size:45px;font-family:'Helvetica Neue';-inkscape-font-specification:'Helvetica Neue Bold'"
         d="m 599.25172,784.38763 c 1.035,0 1.89,-0.18 2.61,-0.63 0.72,-0.405 1.26,-0.945 1.71,-1.62 0.45,-0.675 0.72,-1.485 0.945,-2.385 0.18,-0.9 0.27,-1.8 0.27,-2.745 0,-0.9 -0.135,-1.8 -0.315,-2.745 -0.18,-0.855 -0.495,-1.665 -0.945,-2.385 -0.45,-0.72 -1.035,-1.26 -1.755,-1.71 -0.72,-0.45 -1.575,-0.63 -2.565,-0.675 -1.08,0 -1.935,0.225 -2.655,0.675 -0.72,0.45 -1.26,0.99 -1.71,1.665 -0.45,0.72 -0.72,1.485 -0.9,2.385 -0.18,0.9 -0.27,1.845 -0.27,2.79 -0.045,0.945 0.09,1.845 0.27,2.745 0.18,0.9 0.495,1.71 0.945,2.385 0.45,0.675 1.035,1.215 1.755,1.62 0.675,0.45 1.575,0.63 2.61,0.63 z m -11.745,-19.08 6.075,0 0,2.97 0.09,0 c 0.765,-1.215 1.755,-2.16 2.97,-2.745 1.17,-0.54 2.475,-0.855 3.96,-0.855 1.8,0 3.375,0.36 4.725,1.035 1.305,0.72 2.385,1.62 3.285,2.745 0.855,1.17 1.485,2.475 1.935,4.005 0.405,1.53 0.585,3.105 0.63,4.725 0,1.575 -0.225,3.06 -0.63,4.5 -0.45,1.44 -1.08,2.745 -1.935,3.825 -0.855,1.125 -1.935,2.025 -3.195,2.655 -1.26,0.675 -2.745,0.99 -4.455,0.99 -1.44,0 -2.79,-0.27 -4.005,-0.855 -1.215,-0.585 -2.205,-1.44 -2.97,-2.61 l -0.09,0 0,11.025 -6.39,0 0,-31.41 z m -21.83976,11.655 c 0,0.945 0.09,1.845 0.27,2.745 0.18,0.9 0.45,1.665 0.9,2.385 0.45,0.72 1.035,1.26 1.755,1.665 0.72,0.45 1.62,0.63 2.7,0.63 1.08,0 1.98,-0.18 2.7,-0.63 0.72,-0.405 1.305,-0.945 1.755,-1.665 0.45,-0.72 0.72,-1.485 0.945,-2.385 0.18,-0.9 0.27,-1.8 0.27,-2.745 0,-0.9 -0.09,-1.8 -0.27,-2.745 -0.18,-0.9 -0.495,-1.665 -0.945,-2.385 -0.45,-0.675 -1.035,-1.215 -1.755,-1.665 -0.72,-0.45 -1.62,-0.63 -2.7,-0.675 -1.08,0 -1.98,0.225 -2.7,0.675 -0.72,0.45 -1.305,0.99 -1.755,1.665 -0.45,0.72 -0.72,1.485 -0.9,2.385 -0.18,0.9 -0.27,1.845 -0.27,2.745 z m -6.39,0 c 0,-1.845 0.27,-3.51 0.855,-5.04 0.54,-1.53 1.35,-2.79 2.43,-3.87 1.035,-1.08 2.295,-1.89 3.78,-2.475 1.44,-0.585 3.105,-0.9 4.95,-0.9 1.8,0 3.465,0.315 4.95,0.9 1.485,0.585 2.745,1.395 3.825,2.475 1.035,1.08 1.845,2.34 2.43,3.87 0.54,1.53 0.855,3.195 0.855,5.04 0,1.89 -0.315,3.555 -0.855,5.04 -0.585,1.53 -1.395,2.79 -2.43,3.87 -1.08,1.08 -2.34,1.89 -3.825,2.43 -1.485,0.585 -3.15,0.855 -4.95,0.855 -1.845,0 -3.51,-0.27 -4.95,-0.855 -1.485,-0.54 -2.745,-1.35 -3.78,-2.43 -1.08,-1.08 -1.89,-2.34 -2.43,-3.87 -0.585,-1.485 -0.855,-3.15 -0.855,-5.04 z m -15.97922,-11.655 6.075,0 0,4.32 0.09,0 c 0.27,-0.675 0.675,-1.35 1.215,-1.98 0.495,-0.63 1.08,-1.125 1.755,-1.575 0.63,-0.45 1.35,-0.765 2.115,-1.035 0.72,-0.225 1.485,-0.315 2.34,-0.36 0.405,0 0.855,0.09 1.395,0.225 l 0,5.94 c -0.315,-0.045 -0.675,-0.09 -1.08,-0.135 -0.45,-0.045 -0.855,-0.09 -1.215,-0.09 -1.17,0 -2.16,0.225 -2.97,0.585 -0.81,0.405 -1.485,0.945 -1.98,1.62 -0.495,0.675 -0.855,1.44 -1.035,2.34 -0.225,0.9 -0.315,1.89 -0.315,2.925 l 0,10.485 -6.39,0 0,-23.265 z m -10.17985,9.135 c -0.315,-1.575 -0.855,-2.835 -1.62,-3.69 -0.765,-0.81 -1.935,-1.215 -3.465,-1.26 -1.035,0 -1.89,0.18 -2.565,0.54 -0.675,0.36 -1.215,0.765 -1.62,1.26 -0.405,0.54 -0.675,1.08 -0.855,1.62 -0.18,0.585 -0.27,1.08 -0.27,1.53 l 10.395,0 z m -10.395,4.05 c 0.045,2.07 0.585,3.6 1.575,4.5 0.945,0.945 2.295,1.395 4.14,1.395 1.26,0 2.385,-0.315 3.33,-0.945 0.9,-0.63 1.485,-1.305 1.71,-2.07 l 5.625,0 c -0.9,2.79 -2.295,4.815 -4.14,5.985 -1.89,1.215 -4.14,1.8 -6.75,1.8 -1.845,0 -3.51,-0.27 -4.95,-0.855 -1.485,-0.585 -2.745,-1.44 -3.735,-2.52 -1.035,-1.08 -1.845,-2.34 -2.385,-3.87 -0.54,-1.485 -0.81,-3.105 -0.81,-4.95 0,-1.71 0.27,-3.33 0.855,-4.86 0.54,-1.485 1.35,-2.79 2.43,-3.87 1.035,-1.08 2.295,-1.98 3.735,-2.61 1.44,-0.63 3.06,-0.945 4.86,-0.945 1.935,0 3.69,0.405 5.175,1.17 1.44,0.765 2.655,1.8 3.6,3.06 0.945,1.305 1.62,2.79 2.07,4.41 0.405,1.665 0.54,3.375 0.45,5.175 l -16.785,0 z m -12.98531,-13.185 4.68,0 0,4.275 -4.68,0 0,11.52 c 0,1.08 0.18,1.8 0.54,2.16 0.36,0.36 1.08,0.54 2.16,0.54 0.36,0.045 0.675,0 1.035,-0.045 0.315,0 0.63,-0.045 0.945,-0.135 l 0,4.95 c -0.54,0.09 -1.17,0.18 -1.8,0.18 -0.675,0.045 -1.305,0.045 -1.935,0.045 -0.99,0 -1.935,-0.045 -2.835,-0.18 -0.9,-0.135 -1.665,-0.405 -2.34,-0.81 -0.675,-0.36 -1.215,-0.945 -1.575,-1.665 -0.405,-0.72 -0.585,-1.665 -0.585,-2.835 l 0,-13.725 -3.87,0 0,-4.275 3.87,0 0,-6.975 6.39,0 0,6.975 z m -34.81875,0 6.075,0 0,3.24 0.135,0 c 0.81,-1.305 1.845,-2.295 3.15,-2.925 1.26,-0.63 2.565,-0.945 3.96,-0.945 1.71,0 3.105,0.27 4.185,0.72 1.08,0.45 1.98,1.125 2.61,1.935 0.63,0.81 1.035,1.845 1.305,3.015 0.27,1.17 0.405,2.475 0.405,3.915 l 0,14.31 -6.39,0 0,-13.14 c 0,-1.89 -0.315,-3.33 -0.9,-4.275 -0.63,-0.945 -1.665,-1.44 -3.195,-1.44 -1.755,0 -3.015,0.54 -3.78,1.575 -0.81,1.035 -1.17,2.745 -1.17,5.085 l 0,12.195 -6.39,0 0,-23.265 z m -12.59648,-8.865 7.065,0 0,32.13 -7.065,0 0,-32.13 z"
         inkscape:connector-curvature="0" />
    </g>
    <g
       id="g4208"
       transform="translate(-221.78571,-426.77295)"
       clip-path="url(#clipPath4211)">
      <rect
         y="484.77292"
         x="321.78568"
         height="50"
         width="25"
         id="rect4196"
         style="opacity:1;fill:#147abc;fill-opacity:1;fill-rule:nonzero;stroke:none;stroke-width:0.5;stroke-linecap:butt;stroke-linejoin:round;stroke-miterlimit:4;stroke-dasharray:none;stroke-opacity:1" />
      <rect
         style="opacity:1;fill:#80a23e;fill-opacity:1;fill-rule:nonzero;stroke:none;stroke-width:0.5;stroke-linecap:butt;stroke-linejoin:round;stroke-miterlimit:4;stroke-dasharray:none;stroke-opacity:1"
         id="rect4200"
         width="25"
         height="50"
         x="346.78568"
         y="484.77292" />
      <rect
         y="484.77292"
         x="296.78568"
         height="50"
         width="25"
         id="rect4202"
         style="opacity:1;fill:#6dcbd4;fill-opacity:1;fill-rule:nonzero;stroke:none;stroke-width:0.5;stroke-linecap:butt;stroke-linejoin:round;stroke-miterlimit:4;stroke-dasharray:none;stroke-opacity:1" />
      <rect
         style="opacity:1;fill:#6dcbd4;fill-opacity:1;fill-rule:nonzero;stroke:none;stroke-width:0.5;stroke-linecap:butt;stroke-linejoin:round;stroke-miterlimit:4;stroke-dasharray:none;stroke-opacity:1"
         id="rect4206"
         width="25"
         height="50"
         x="321.78568"
         y="534.77295" />
      <rect
         style="opacity:1;fill:#147abc;fill-opacity:1;fill-rule:nonzero;stroke:none;stroke-width:0.5;stroke-linecap:butt;stroke-linejoin:round;stroke-miterlimit:4;stroke-dasharray:none;stroke-opacity:1"
         id="rect4214"
         width="25"
         height="50"
         x="296.78568"
         y="534.77295" />
      <rect
         y="534.77295"
         x="271.78568"
         height="50"
         width="25"
         id="rect4216"
         style="opacity:1;fill:#6dcbd4;fill-opacity:1;fill-rule:nonzero;stroke:none;stroke-width:0.5;stroke-linecap:butt;stroke-linejoin:round;stroke-miterlimit:4;stroke-dasharray:none;stroke-opacity:1" />
      <rect
         y="584.77295"
         x="271.78568"
         height="50"
         width="25"
         id="rect4218"
         style="opacity:1;fill:#147abc;fill-opacity:1;fill-rule:nonzero;stroke:none;stroke-width:0.5;stroke-linecap:butt;stroke-linejoin:round;stroke-miterlimit:4;stroke-dasharray:none;stroke-opacity:1" />
      <rect
         style="opacity:1;fill:#1783bf;fill-opacity:1;fill-rule:nonzero;stroke:none;stroke-width:0.5;stroke-linecap:butt;stroke-linejoin:round;stroke-miterlimit:4;stroke-dasharray:none;stroke-opacity:1"
         id="rect4220"
         width="25"
         height="50"
         x="296.78568"
         y="584.77295" />
      <rect
         y="584.77295"
         x="321.78568"
         height="50"
         width="25"
         id="rect4222"
         style="opacity:1;fill:#0aa9c5;fill-opacity:1;fill-rule:nonzero;stroke:none;stroke-width:0.5;stroke-linecap:butt;stroke-linejoin:round;stroke-miterlimit:4;stroke-dasharray:none;stroke-opacity:1" />
      <rect
         style="opacity:1;fill:#6dcbd4;fill-opacity:1;fill-rule:nonzero;stroke:none;stroke-width:0.5;stroke-linecap:butt;stroke-linejoin:round;stroke-miterlimit:4;stroke-dasharray:none;stroke-opacity:1"
         id="rect4224"
         width="25"
         height="75"
         x="321.78568"
         y="409.77292" />
      <rect
         style="opacity:1;fill:#6dcbd4;fill-opacity:1;fill-rule:nonzero;stroke:none;stroke-width:0.5;stroke-linecap:butt;stroke-linejoin:round;stroke-miterlimit:4;stroke-dasharray:none;stroke-opacity:1"
         id="rect4226"
         width="25"
         height="50"
         x="296.78568"
         y="634.77295" />
      <rect
         style="opacity:1;fill:#0aa9c5;fill-opacity:1;fill-rule:nonzero;stroke:none;stroke-width:0.5;stroke-linecap:butt;stroke-linejoin:round;stroke-miterlimit:4;stroke-dasharray:none;stroke-opacity:1"
         id="rect4228"
         width="25"
         height="50"
         x="271.78568"
         y="634.77295" />
      <rect
         style="opacity:1;fill:#147abc;fill-opacity:1;fill-rule:nonzero;stroke:none;stroke-width:0.5;stroke-linecap:butt;stroke-linejoin:round;stroke-miterlimit:4;stroke-dasharray:none;stroke-opacity:1"
         id="rect4230"
         width="25"
         height="50"
         x="321.78568"
         y="634.77295" />
      <rect
         y="534.77295"
         x="346.78568"
         height="50"
         width="25"
         id="rect4232"
         style="opacity:1;fill:#8ec641;fill-opacity:1;fill-rule:nonzero;stroke:none;stroke-width:0.5;stroke-linecap:butt;stroke-linejoin:round;stroke-miterlimit:4;stroke-dasharray:none;stroke-opacity:1" />
      <rect
         y="584.77295"
         x="246.78568"
         height="50"
         width="25"
         id="rect4234"
         style="opacity:1;fill:#80a23e;fill-opacity:1;fill-rule:nonzero;stroke:none;stroke-width:0.5;stroke-linecap:butt;stroke-linejoin:round;stroke-miterlimit:4;stroke-dasharray:none;stroke-opacity:1" />
      <rect
         style="opacity:1;fill:#8ec641;fill-opacity:1;fill-rule:nonzero;stroke:none;stroke-width:0.5;stroke-linecap:butt;stroke-linejoin:round;stroke-miterlimit:4;stroke-dasharray:none;stroke-opacity:1"
         id="rect4236"
         width="25"
         height="50"
         x="371.78568"
         y="484.77292" />
      <rect
         y="409.77292"
         x="346.78568"
         height="75"
         width="25"
         id="rect4238"
         style="opacity:1;fill:#8ec641;fill-opacity:1;fill-rule:nonzero;stroke:none;stroke-width:0.5;stroke-linecap:butt;stroke-linejoin:round;stroke-miterlimit:4;stroke-dasharray:none;stroke-opacity:1" />
      <rect
         y="584.77295"
         x="221.78568"
         height="50"
         width="25"
         id="rect4240"
         style="opacity:1;fill:#8ec641;fill-opacity:1;fill-rule:nonzero;stroke:none;stroke-width:0.5;stroke-linecap:butt;stroke-linejoin:round;stroke-miterlimit:4;stroke-dasharray:none;stroke-opacity:1" />
      <rect
         y="409.77292"
         x="371.78568"
         height="75"
         width="25"
         id="rect4242"
         style="opacity:1;fill:#649640;fill-opacity:1;fill-rule:nonzero;stroke:none;stroke-width:0.5;stroke-linecap:butt;stroke-linejoin:round;stroke-miterlimit:4;stroke-dasharray:none;stroke-opacity:1" />
      <rect
         style="opacity:1;fill:#649640;fill-opacity:1;fill-rule:nonzero;stroke:none;stroke-width:0.5;stroke-linecap:butt;stroke-linejoin:round;stroke-miterlimit:4;stroke-dasharray:none;stroke-opacity:1"
         id="rect4244"
         width="25"
         height="50"
         x="246.78568"
         y="534.77295" />
      <rect
         style="opacity:1;fill:#5b863a;fill-opacity:1;fill-rule:nonzero;stroke:none;stroke-width:0.5;stroke-linecap:butt;stroke-linejoin:round;stroke-miterlimit:4;stroke-dasharray:none;stroke-opacity:1"
         id="rect4246"
         width="25"
         height="75"
         x="396.78568"
         y="409.77292" />
      <rect
         y="409.77292"
         x="296.78568"
         height="75"
         width="25"
         id="rect4169"
         style="opacity:1;fill:#f26225;fill-opacity:1;fill-rule:nonzero;stroke:none;stroke-width:0.5;stroke-linecap:butt;stroke-linejoin:round;stroke-miterlimit:4;stroke-dasharray:none;stroke-opacity:1" />
      <rect
         y="409.77292"
         x="421.78568"
         height="75"
         width="25"
         id="rect4171"
         style="opacity:1;fill:#506d33;fill-opacity:1;fill-rule:nonzero;stroke:none;stroke-width:0.5;stroke-linecap:butt;stroke-linejoin:round;stroke-miterlimit:4;stroke-dasharray:none;stroke-opacity:1" />
      <rect
         y="534.77295"
         x="221.78568"
         height="50"
         width="25"
         id="rect4173"
         style="opacity:1;fill:#506d33;fill-opacity:1;fill-rule:nonzero;stroke:none;stroke-width:0.5;stroke-linecap:butt;stroke-linejoin:round;stroke-miterlimit:4;stroke-dasharray:none;stroke-opacity:1" />
      <rect
         style="opacity:1;fill:#f26225;fill-opacity:1;fill-rule:nonzero;stroke:none;stroke-width:0.5;stroke-linecap:butt;stroke-linejoin:round;stroke-miterlimit:4;stroke-dasharray:none;stroke-opacity:1"
         id="rect4175"
         width="25"
         height="50"
         x="371.78568"
         y="584.77295" />
      <rect
         y="534.77295"
         x="396.78568"
         height="50"
         width="25"
         id="rect4177"
         style="opacity:1;fill:#f26225;fill-opacity:1;fill-rule:nonzero;stroke:none;stroke-width:0.5;stroke-linecap:butt;stroke-linejoin:round;stroke-miterlimit:4;stroke-dasharray:none;stroke-opacity:1" />
      <rect
         style="opacity:1;fill:#f26225;fill-opacity:1;fill-rule:nonzero;stroke:none;stroke-width:0.5;stroke-linecap:butt;stroke-linejoin:round;stroke-miterlimit:4;stroke-dasharray:none;stroke-opacity:1"
         id="rect4181"
         width="25"
         height="50"
         x="246.78568"
         y="484.77292" />
      <rect
         y="409.77292"
         x="221.78568"
         height="75"
         width="25"
         id="rect4183"
         style="opacity:1;fill:#e14c2d;fill-opacity:1;fill-rule:nonzero;stroke:none;stroke-width:0.5;stroke-linecap:butt;stroke-linejoin:round;stroke-miterlimit:4;stroke-dasharray:none;stroke-opacity:1" />
      <rect
         y="484.77292"
         x="271.78568"
         height="50"
         width="25"
         id="rect4185"
         style="opacity:1;fill:#e14c2d;fill-opacity:1;fill-rule:nonzero;stroke:none;stroke-width:0.5;stroke-linecap:butt;stroke-linejoin:round;stroke-miterlimit:4;stroke-dasharray:none;stroke-opacity:1" />
      <rect
         y="484.77292"
         x="221.78568"
         height="50"
         width="25"
         id="rect4187"
         style="opacity:1;fill:#f98b38;fill-opacity:1;fill-rule:nonzero;stroke:none;stroke-width:0.5;stroke-linecap:butt;stroke-linejoin:round;stroke-miterlimit:4;stroke-dasharray:none;stroke-opacity:1" />
      <rect
         style="opacity:1;fill:#f98b38;fill-opacity:1;fill-rule:nonzero;stroke:none;stroke-width:0.5;stroke-linecap:butt;stroke-linejoin:round;stroke-miterlimit:4;stroke-dasharray:none;stroke-opacity:1"
         id="rect4189"
         width="25"
         height="75"
         x="271.78568"
         y="409.77292" />
      <rect
         style="opacity:1;fill:#f78520;fill-opacity:1;fill-rule:nonzero;stroke:none;stroke-width:0.5;stroke-linecap:butt;stroke-linejoin:round;stroke-miterlimit:4;stroke-dasharray:none;stroke-opacity:1"
         id="rect4191"
         width="25"
         height="75"
         x="246.78568"
         y="409.77292" />
      <rect
         style="opacity:1;fill:#f78520;fill-opacity:1;fill-rule:nonzero;stroke:none;stroke-width:0.5;stroke-linecap:butt;stroke-linejoin:round;stroke-miterlimit:4;stroke-dasharray:none;stroke-opacity:1"
         id="rect4193"
         width="25"
         height="50"
         x="371.78568"
         y="534.77295" />
      <rect
         y="584.77295"
         x="396.78568"
         height="50"
         width="25"
         id="rect4195"
         style="opacity:1;fill:#f78520;fill-opacity:1;fill-rule:nonzero;stroke:none;stroke-width:0.5;stroke-linecap:butt;stroke-linejoin:round;stroke-miterlimit:4;stroke-dasharray:none;stroke-opacity:1" />
      <rect
         y="634.77295"
         x="346.78568"
         height="50"
         width="25"
         id="rect4197"
         style="opacity:1;fill:#f98b38;fill-opacity:1;fill-rule:nonzero;stroke:none;stroke-width:0.5;stroke-linecap:butt;stroke-linejoin:round;stroke-miterlimit:4;stroke-dasharray:none;stroke-opacity:1" />
      <rect
         style="opacity:1;fill:#f98b38;fill-opacity:1;fill-rule:nonzero;stroke:none;stroke-width:0.5;stroke-linecap:butt;stroke-linejoin:round;stroke-miterlimit:4;stroke-dasharray:none;stroke-opacity:1"
         id="rect4199"
         width="25"
         height="50"
         x="421.78568"
         y="584.77295" />
      <rect
         style="opacity:1;fill:#f78520;fill-opacity:1;fill-rule:nonzero;stroke:none;stroke-width:0.5;stroke-linecap:butt;stroke-linejoin:round;stroke-miterlimit:4;stroke-dasharray:none;stroke-opacity:1"
         id="rect4201"
         width="25"
         height="50"
         x="371.78568"
         y="634.77295" />
      <rect
         style="opacity:1;fill:#c3bd45;fill-opacity:1;fill-rule:nonzero;stroke:none;stroke-width:0.5;stroke-linecap:butt;stroke-linejoin:round;stroke-miterlimit:4;stroke-dasharray:none;stroke-opacity:1"
         id="rect4203"
         width="25"
         height="50"
         x="346.78568"
         y="584.77295" />
      <rect
         y="534.77295"
         x="421.78568"
         height="50"
         width="25"
         id="rect4205"
         style="opacity:1;fill:#c3bd45;fill-opacity:1;fill-rule:nonzero;stroke:none;stroke-width:0.5;stroke-linecap:butt;stroke-linejoin:round;stroke-miterlimit:4;stroke-dasharray:none;stroke-opacity:1" />
      <rect
         y="484.77292"
         x="421.78568"
         height="50"
         width="25"
         id="rect4207"
         style="opacity:1;fill:#80a23e;fill-opacity:1;fill-rule:nonzero;stroke:none;stroke-width:0.5;stroke-linecap:butt;stroke-linejoin:round;stroke-miterlimit:4;stroke-dasharray:none;stroke-opacity:1" />
      <rect
         style="opacity:1;fill:#7eae41;fill-opacity:1;fill-rule:nonzero;stroke:none;stroke-width:0.5;stroke-linecap:butt;stroke-linejoin:round;stroke-miterlimit:4;stroke-dasharray:none;stroke-opacity:1"
         id="rect4209"
         width="25"
         height="50"
         x="396.78568"
         y="484.77292" />
    </g>
  </g>
</svg>
