<?xml version="1.0" encoding="UTF-8" standalone="no"?>
<!-- Created with Inkscape (http://www.inkscape.org/) -->
<svg id="svg2" xmlns:rdf="http://www.w3.org/1999/02/22-rdf-syntax-ns#" xmlns="http://www.w3.org/2000/svg" height="296" width="225" version="1.1" xmlns:cc="http://creativecommons.org/ns#" xmlns:dc="http://purl.org/dc/elements/1.1/" viewBox="0 0 225 296.00001">
<metadata id="metadata7">
<rdf:RDF>
<cc:Work rdf:about="">
<dc:format>image/svg+xml</dc:format>
<dc:type rdf:resource="http://purl.org/dc/dcmitype/StillImage"/>
<dc:title/>
</cc:Work>
</rdf:RDF>
</metadata>
<g id="layer2" transform="translate(0,16)">
<g id="g4161" transform="translate(12.5 -1)">
<g id="g4169" transform="translate(-200,2)">
<path id="rect4148" d="m300-0.0000046h100l-200 200z" fill="#6bc9cf"/>
<path id="path4167" d="m200-0.0000046h100l-100 200z" fill="#e14c2d"/>
<path id="path4173" d="m400 100v-100l-200 200z" fill="#b8c833"/>
<path id="path4175" d="m400 200v-100l-200 100z" fill="#ee9221"/>
</g>
<g id="text4202" fill="#000000">
<path id="path4144" d="m25.329 241.03q0 5.5328-3.2745 8.559-3.252 3.0035-9.259 3.0035h-2.5067v10.953h-8.9203v-33.016h11.427q6.2555 0 9.3945 2.7326 3.139 2.7325 3.139 7.7686zm-15.04 4.2908h1.626q2.0099 0 3.1842-1.1292 1.1969-1.1292 1.1969-3.1164 0-3.3423-3.7036-3.3423h-2.3035v7.5879z"/>
<path id="path4146" d="m58.933 263.55h-8.9655v-13.459h-10.366v13.459h-8.9655v-33.016h8.9655v12.24h10.366v-12.24h8.9655v33.016z"/>
<path id="path4148" d="m80.748 237.37q-3.1842 0-4.9683 2.6196-1.7841 2.597-1.7841 7.1814 0 9.53 7.2491 9.53 2.1906 0 4.2456-0.60974 2.0551-0.60974 4.1327-1.4679v7.5427q-4.133 1.84-9.349 1.84-7.475 0-11.472-4.3359-3.9746-4.3359-3.9746-12.534 0-5.1263 1.9196-9.0106 1.9421-3.8843 5.5554-5.9619 3.6359-2.1002 8.5364-2.1002 5.3522 0 10.23 2.326l-2.7325 7.0233q-1.8292-0.85815-3.6584-1.4453-1.8292-0.58716-3.9294-0.58716z"/>
<path id="path4150" d="m136.35 263.55h-8.9654v-13.459h-10.366v13.459h-8.9655v-33.016h8.9655v12.24h10.366v-12.24h8.9654v33.016z"/>
<path id="path4152" d="m161.17 263.55-1.1066-3.1842h-0.51941q-1.1066 1.7615-3.0939 2.71-1.9647 0.9259-4.6295 0.9259-4.223 0-6.5716-2.439-2.3486-2.4616-2.3486-6.933v-16.666h8.83v13.979q0 2.5067 0.70007 3.794 0.72266 1.2872 2.3486 1.2872 2.2809 0 3.252-1.7841 0.97107-1.8066 0.97107-6.0748v-11.201h8.83v25.587h-6.662z"/>
<path id="path4154" d="m189.55 237.51q4.1778 0 6.6168 3.5004 2.4616 3.5004 2.4616 9.6881 0 6.2329-2.4841 9.7784-2.45 3.52-6.86 3.52-1.4227 0-2.5293-0.31616-1.1066-0.29358-1.9873-0.83557-0.85815-0.542-2.0099-1.8066h-0.54199l-1.4002 2.5067h-6.8878v-35.139h8.83v7.9492q0 1.4227-0.31616 4.9005h0.31616q1.2872-1.9873 2.9584-2.868 1.6937-0.88074 3.8391-0.88074zm-3.2294 6.933q-1.8518 0-2.71 1.2872-0.85816 1.2872-0.85816 4.0424v1.2421q0 3.139 0.85816 4.5166 0.85815 1.355 2.8003 1.355 1.5582 0 2.3938-1.5808 0.83557-1.6034 0.83557-4.6973 0-6.1652-3.3197-6.1652z"/>
</g>
</g>
</g>
</svg>
