<?xml version="1.0" encoding="UTF-8" standalone="no"?>
<!-- Created with Inkscape (http://www.inkscape.org/) -->
<svg id="svg2" xmlns:rdf="http://www.w3.org/1999/02/22-rdf-syntax-ns#" xmlns="http://www.w3.org/2000/svg" height="296" width="225" version="1.1" xmlns:cc="http://creativecommons.org/ns#" xmlns:dc="http://purl.org/dc/elements/1.1/" viewBox="0 0 225 296.00001">
<metadata id="metadata7">
<rdf:RDF>
<cc:Work rdf:about="">
<dc:format>image/svg+xml</dc:format>
<dc:type rdf:resource="http://purl.org/dc/dcmitype/StillImage"/>
<dc:title/>
</cc:Work>
</rdf:RDF>
</metadata>
<g id="layer2" transform="translate(0,16)">
<g id="g4190" stroke-linejoin="round" fill-rule="evenodd" transform="translate(-247.36 -28.827)" stroke-width="15" fill="#ffffff">
<path id="path4180" d="m279.86 118.06 0.00001 92.376 80-46.188-0.00002-92.376z" stroke="#e14c2d"/>
<path id="path4142" d="m319.86 118.95 0.00001 92.376 80-46.188-0.00002-92.376z" stroke="#6bc9cf"/>
<path id="path4151" d="m359.86 118.95 0.00001 92.376 80-46.188-0.00002-92.376z" stroke="#b8c833"/>
</g>
<g id="text4195" fill="#000000">
<path id="path4154" d="m36.816 220.94q0 2.6562-1.3477 4.7266-1.3477 2.0508-3.8867 3.2031-2.539 1.13-5.957 1.13-2.8516 0-4.7852-0.39063-1.9336-0.41015-4.0234-1.4062v-6.875q2.207 1.1328 4.5898 1.7774 2.3828 0.625 4.375 0.625 1.7188 0 2.5195-0.58594 0.80078-0.60547 0.80078-1.543 0-0.58594-0.33203-1.0156-0.3125-0.44922-1.0352-0.89844-0.70312-0.44922-3.7891-1.8359-2.793-1.2695-4.1992-2.4609-1.3867-1.1914-2.0703-2.7344-0.66406-1.543-0.66406-3.6523 0-3.9453 2.8711-6.1524 2.8711-2.207 7.8906-2.207 4.4336 0 9.043 2.0508l-2.3633 5.957q-4.0039-1.8359-6.9141-1.8359-1.5039 0-2.1875 0.52734-0.68359 0.52734-0.68359 1.3086 0 0.83985 0.85938 1.5039 0.87891 0.66406 4.7266 2.4219 3.6914 1.6602 5.1172 3.5742 1.4453 1.8945 1.4453 4.7852z"/>
<path id="path4156" d="m58.223 229.61h-16.953v-28.555h16.953v6.1914h-9.2383v4.4922h8.5547v6.1914h-8.5547v5.3906h9.2383v6.2891z"/>
<path id="path4158" d="m90.41 229.61h-10.117l-10.43-20.117h-0.17578q0.37109 4.7461 0.37109 7.2461v12.871h-6.8359v-28.555h10.078l10.391 19.844h0.11719q-0.27344-4.3164-0.27344-6.9336v-12.91h6.875v28.555z"/>
<path id="path4160" d="m109.18 229.61h-7.7148v-22.246h-6.9727v-6.3086h21.641v6.3086h-6.9531v22.246z"/>
<path id="path4162" d="m120.25 229.61v-28.555h7.7539v28.555h-7.7539z"/>
<path id="path4164" d="m161.35 229.61h-10.117l-10.43-20.117h-0.17578q0.37109 4.7461 0.37109 7.2461v12.871h-6.8359v-28.555h10.078l10.391 19.844h0.11718q-0.27343-4.3164-0.27343-6.9336v-12.91h6.875v28.555z"/>
<path id="path4166" d="m184.47 229.61h-16.953v-28.555h16.953v6.1914h-9.2383v4.4922h8.5547v6.1914h-8.5547v5.3906h9.2383v6.2891z"/>
<path id="path4168" d="m189.47 229.61v-28.555h7.7148v22.324h10.996v6.2305h-18.711z"/>
</g>
</g>
</svg>
