<?xml version="1.0" encoding="UTF-8" standalone="no"?>
<!-- Created with Inkscape (http://www.inkscape.org/) -->
<svg id="svg2" xmlns:rdf="http://www.w3.org/1999/02/22-rdf-syntax-ns#" xmlns="http://www.w3.org/2000/svg" height="296" width="225" version="1.1" xmlns:cc="http://creativecommons.org/ns#" xmlns:dc="http://purl.org/dc/elements/1.1/" viewBox="0 0 225 296.00001">
<metadata id="metadata7">
<rdf:RDF>
<cc:Work rdf:about="">
<dc:format>image/svg+xml</dc:format>
<dc:type rdf:resource="http://purl.org/dc/dcmitype/StillImage"/>
<dc:title/>
</cc:Work>
</rdf:RDF>
</metadata>
<g id="layer2" transform="translate(0,16)">
<g id="text4195" fill="#000000">
<path id="path4155" d="m65.146 230.94q0 2.6562-1.3477 4.7266-1.3477 2.0508-3.8867 3.2031-2.539 1.13-5.957 1.13-2.8516 0-4.7852-0.39063-1.9336-0.41015-4.0234-1.4062v-6.875q2.207 1.1328 4.5898 1.7774 2.3828 0.625 4.375 0.625 1.7188 0 2.5195-0.58594 0.80078-0.60547 0.80078-1.543 0-0.58594-0.33203-1.0156-0.3125-0.44922-1.0352-0.89844-0.70312-0.44922-3.7891-1.8359-2.793-1.2695-4.1992-2.4609-1.3867-1.1914-2.0703-2.7344-0.66406-1.543-0.66406-3.6523 0-3.9453 2.8711-6.1524 2.8711-2.207 7.8906-2.207 4.4336 0 9.043 2.0508l-2.3633 5.957q-4.0039-1.8359-6.9141-1.8359-1.5039 0-2.1875 0.52734-0.68359 0.52734-0.68359 1.3086 0 0.83985 0.85938 1.5039 0.87891 0.66406 4.7266 2.4219 3.6914 1.6602 5.1172 3.5742 1.4453 1.8945 1.4453 4.7852z"/>
<path id="path4157" d="m82.041 239.61-5.8398-20.566h-0.17578q0.41016 5.2539 0.41016 8.1641v12.402h-6.8359v-28.555h10.273l5.957 20.273h0.15625l5.8398-20.273h10.293v28.555h-7.0898v-12.52q0-0.97656 0.01953-2.168 0.03906-1.1914 0.27344-5.8398h-0.17578l-5.7617 20.527h-7.3438z"/>
<path id="path4159" d="m122.26 239.61-1.4648-2.9297h-0.15625q-1.543 1.9141-3.1445 2.6172-1.61 0.7-4.15 0.7-3.125 0-4.9219-1.875t-1.7969-5.2734q0-3.5352 2.4609-5.2539 2.4609-1.7383 7.1289-1.9531l3.6914-0.11719v-0.3125q0-2.7344-2.6953-2.7344-2.4219 0-6.1524 1.6406l-2.207-5.0391q3.8672-1.9922 9.7656-1.9922 4.2578 0 6.582 2.1094 2.3438 2.1094 2.3438 5.8984v14.512h-5.293zm-5.6641-5q1.3867 0 2.3633-0.8789 0.99609-0.87891 0.99609-2.2852v-1.7188l-1.7578 0.0781q-3.7695 0.13672-3.7695 2.7734 0 2.0312 2.168 2.0312z"/>
<path id="path4161" d="m140.91 229.22v10.391h-7.7148v-28.555h9.3555q11.641 0 11.641 8.4375 0 4.9609-4.8438 7.6758l8.3203 12.441h-8.75l-6.0547-10.391h-1.9531zm0-5.8008h1.4453q4.043 0 4.043-3.5742 0-2.9492-3.9648-2.9492h-1.5234v6.5234z"/>
<path id="path4163" d="m172.9 239.61h-7.7148v-22.246h-6.9727v-6.3086h21.641v6.3086h-6.9531v22.246z"/>
</g>
<g id="layer1" fill-rule="evenodd" transform="matrix(-.38069 0 0 .38057 247.49 -74.109)">
<path id="path3214" d="m312.32 254.29 185.55 330.26-206.26 0.11485-39.564 70.714 365.22 0.057-222.8-401.35-82.14 0.20643z" fill="#e14c2d"/>
<path id="path4185" d="m312.31 254.27-220.39 401.1 40.41 72.73 182.84-331.33 102.02 187.89h80.812l-185.69-330.4z" fill="#ee9221"/>
<path id="path5156" d="m315.21 396.84 40.291 74.219-103.63 184.38 365.42 0.18957-38.47 74.5-446.47-2.0469 182.86-331.24z" fill="#6bc9cf"/>
</g>
</g>
</svg>
